<svg
			width="582"
			height="38"
			viewBox="0 0 582 38"
			fill="none"
			xmlns="http://www.w3.org/2000/svg"
		>
			<path
				d="M28.183 2.544V36H23.815V20.832H6.77495V36H2.40695V2.544H6.77495V17.232H23.815V2.544H28.183Z"
				stroke="#4554DC"
				stroke-width="3"
				stroke-linecap="round"
				stroke-linejoin="round"
			/>
			<path
				d="M67.4173 28.56H52.8253L50.1373 36H45.5293L57.6253 2.736H62.6653L74.7133 36H70.1053L67.4173 28.56ZM66.1693 25.008L60.1213 8.112L54.0733 25.008H66.1693Z"
				stroke="#4554DC"
				stroke-width="3"
				stroke-linecap="round"
				stroke-linejoin="round"
			/>
			<path
				d="M109.601 36L101.633 22.32H96.3531V36H91.9851V2.544H102.785C105.313 2.544 107.441 2.976 109.169 3.84C110.929 4.704 112.241 5.872 113.105 7.344C113.969 8.816 114.401 10.496 114.401 12.384C114.401 14.688 113.729 16.72 112.385 18.48C111.073 20.24 109.089 21.408 106.433 21.984L114.833 36H109.601ZM96.3531 18.816H102.785C105.153 18.816 106.929 18.24 108.113 17.088C109.297 15.904 109.889 14.336 109.889 12.384C109.889 10.4 109.297 8.864 108.113 7.776C106.961 6.688 105.185 6.144 102.785 6.144H96.3531V18.816Z"
				stroke="#4554DC"
				stroke-width="3"
				stroke-linecap="round"
				stroke-linejoin="round"
			/>
			<path
				d="M143.796 36.336C141.588 36.336 139.604 35.952 137.844 35.184C136.116 34.384 134.756 33.296 133.764 31.92C132.772 30.512 132.26 28.896 132.228 27.072H136.884C137.044 28.64 137.684 29.968 138.804 31.056C139.956 32.112 141.62 32.64 143.796 32.64C145.876 32.64 147.508 32.128 148.692 31.104C149.908 30.048 150.516 28.704 150.516 27.072C150.516 25.792 150.164 24.752 149.46 23.952C148.756 23.152 147.876 22.544 146.82 22.128C145.764 21.712 144.34 21.264 142.548 20.784C140.34 20.208 138.564 19.632 137.22 19.056C135.908 18.48 134.772 17.584 133.812 16.368C132.884 15.12 132.42 13.456 132.42 11.376C132.42 9.552 132.884 7.936 133.812 6.528C134.74 5.12 136.036 4.032 137.7 3.264C139.396 2.496 141.332 2.112 143.508 2.112C146.644 2.112 149.204 2.896 151.188 4.464C153.204 6.032 154.34 8.112 154.596 10.704H149.796C149.636 9.424 148.964 8.304 147.78 7.344C146.596 6.352 145.028 5.856 143.076 5.856C141.252 5.856 139.764 6.336 138.612 7.296C137.46 8.224 136.884 9.536 136.884 11.232C136.884 12.448 137.22 13.44 137.892 14.208C138.596 14.976 139.444 15.568 140.436 15.984C141.46 16.368 142.884 16.816 144.708 17.328C146.916 17.936 148.692 18.544 150.036 19.152C151.38 19.728 152.532 20.64 153.492 21.888C154.452 23.104 154.932 24.768 154.932 26.88C154.932 28.512 154.5 30.048 153.636 31.488C152.772 32.928 151.492 34.096 149.796 34.992C148.1 35.888 146.1 36.336 143.796 36.336Z"
				stroke="#4554DC"
				stroke-width="3"
				stroke-linecap="round"
				stroke-linejoin="round"
			/>
			<path
				d="M199.136 2.544V36H194.768V20.832H177.728V36H173.36V2.544H177.728V17.232H194.768V2.544H199.136Z"
				stroke="#4554DC"
				stroke-width="3"
				stroke-linecap="round"
				stroke-linejoin="round"
			/>
			<path
				d="M238.37 28.56H223.778L221.09 36H216.482L228.578 2.736H233.618L245.666 36H241.058L238.37 28.56ZM237.122 25.008L231.074 8.112L225.026 25.008H237.122Z"
				stroke="#4554DC"
				stroke-width="3"
				stroke-linecap="round"
				stroke-linejoin="round"
			/>
			<path
				d="M315.383 2.544L302.759 36H297.719L285.095 2.544H289.751L300.263 31.392L310.775 2.544H315.383Z"
				stroke="#4554DC"
				stroke-width="3"
				stroke-linecap="round"
				stroke-linejoin="round"
			/>
			<path
				d="M351.949 28.56H337.357L334.669 36H330.061L342.157 2.736H347.197L359.245 36H354.637L351.949 28.56ZM350.701 25.008L344.653 8.112L338.605 25.008H350.701Z"
				stroke="#4554DC"
				stroke-width="3"
				stroke-linecap="round"
				stroke-linejoin="round"
			/>
			<path
				d="M394.132 36L386.164 22.32H380.884V36H376.516V2.544H387.316C389.844 2.544 391.972 2.976 393.7 3.84C395.46 4.704 396.772 5.872 397.636 7.344C398.5 8.816 398.932 10.496 398.932 12.384C398.932 14.688 398.26 16.72 396.916 18.48C395.604 20.24 393.62 21.408 390.964 21.984L399.364 36H394.132ZM380.884 18.816H387.316C389.684 18.816 391.46 18.24 392.644 17.088C393.828 15.904 394.42 14.336 394.42 12.384C394.42 10.4 393.828 8.864 392.644 7.776C391.492 6.688 389.716 6.144 387.316 6.144H380.884V18.816Z"
				stroke="#4554DC"
				stroke-width="3"
				stroke-linecap="round"
				stroke-linejoin="round"
			/>
			<path
				d="M428.135 2.544C431.783 2.544 434.935 3.232 437.591 4.608C440.279 5.952 442.327 7.888 443.735 10.416C445.175 12.944 445.895 15.92 445.895 19.344C445.895 22.768 445.175 25.744 443.735 28.272C442.327 30.768 440.279 32.688 437.591 34.032C434.935 35.344 431.783 36 428.135 36H417.719V2.544H428.135ZM428.135 32.4C432.455 32.4 435.751 31.264 438.023 28.992C440.295 26.688 441.431 23.472 441.431 19.344C441.431 15.184 440.279 11.936 437.975 9.6C435.703 7.264 432.423 6.096 428.135 6.096H422.087V32.4H428.135Z"
				stroke="#4554DC"
				stroke-width="3"
				stroke-linecap="round"
				stroke-linejoin="round"
			/>
			<path
				d="M489.433 2.544V36H485.065V20.832H468.025V36H463.657V2.544H468.025V17.232H485.065V2.544H489.433Z"
				stroke="#4554DC"
				stroke-width="3"
				stroke-linecap="round"
				stroke-linejoin="round"
			/>
			<path
				d="M528.667 28.56H514.075L511.387 36H506.779L518.875 2.736H523.915L535.963 36H531.355L528.667 28.56ZM527.419 25.008L521.371 8.112L515.323 25.008H527.419Z"
				stroke="#4554DC"
				stroke-width="3"
				stroke-linecap="round"
				stroke-linejoin="round"
			/>
			<path
				d="M579.539 36H575.171L557.603 9.36V36H553.235V2.496H557.603L575.171 29.088V2.496H579.539V36Z"
				stroke="#4554DC"
				stroke-width="3"
				stroke-linecap="round"
				stroke-linejoin="round"
			/>
		</svg>